<svg width="18" height="18" viewBox="0 0 18 18" fill="none" xmlns="http://www.w3.org/2000/svg">
<g filter="url(#filter0_d_0_1654)">
<path fill-rule="evenodd" clip-rule="evenodd" d="M8.94911 0L10.1813 0.803456L11.6523 0.793732L12.2545 2.13583L13.4973 2.92292L13.2783 4.37756L13.8982 5.71157L12.9276 6.81691L12.7279 8.2743L11.3137 8.6794L10.3578 9.79747L8.94911 9.37371L7.54044 9.79747L6.5845 8.6794L5.17036 8.2743L4.97064 6.81691L4 5.71157L4.61992 4.37756L4.40095 2.92292L5.64368 2.13583L6.2459 0.793732L7.71689 0.803456L8.94911 0ZM10.2579 3.51871L8.28924 5.60893L7.64029 4.91992C7.48882 4.75911 7.23567 4.75153 7.07486 4.90299C6.91404 5.05446 6.90646 5.30761 7.05793 5.46842L7.99805 6.46659C8.15597 6.63425 8.4225 6.63425 8.58042 6.46659L10.8403 4.06721C10.9918 3.9064 10.9842 3.65325 10.8234 3.50178C10.6625 3.35032 10.4094 3.3579 10.2579 3.51871Z" fill="#3897F0"/>
</g>
<defs>
<filter id="filter0_d_0_1654" x="0" y="0" width="17.8982" height="17.7974" filterUnits="userSpaceOnUse" color-interpolation-filters="sRGB">
<feFlood flood-opacity="0" result="BackgroundImageFix"/>
<feColorMatrix in="SourceAlpha" type="matrix" values="0 0 0 0 0 0 0 0 0 0 0 0 0 0 0 0 0 0 127 0" result="hardAlpha"/>
<feOffset dy="4"/>
<feGaussianBlur stdDeviation="2"/>
<feComposite in2="hardAlpha" operator="out"/>
<feColorMatrix type="matrix" values="0 0 0 0 0 0 0 0 0 0 0 0 0 0 0 0 0 0 0.25 0"/>
<feBlend mode="normal" in2="BackgroundImageFix" result="effect1_dropShadow_0_1654"/>
<feBlend mode="normal" in="SourceGraphic" in2="effect1_dropShadow_0_1654" result="shape"/>
</filter>
</defs>
</svg>
